# AST/ASF file generated using VICON BodyLanguage
# -----------------------------------------------
:version 1.10
:name VICON
:units
  mass 1.0
  length 0.45
  angle deg
:documentation
   .ast/.asf automatically generated from VICON data using
   VICON BodyBuilder and BodyLanguage model FoxedUp or BRILLIANT.MOD
:root
   order TX TY TZ RX RY RZ
   axis XYZ
   position 0 0 0  
   orientation 0 0 0 
:bonedata
  begin
     id 1 
     name lhipjoint
     direction 0.621036 -0.695554 0.361275 
     length 2.46325 
     axis 0 0 0  XYZ
  end
  begin
     id 2 
     name lfemur
     direction 0.34202 -0.939693 0  
     length 6.54784  
     axis 0 0 20  XYZ
    dof rx ry rz
    limits (-160.0 20.0)
           (-70.0 70.0)
           (-60.0 70.0)
  end
  begin
     id 3 
     name ltibia
     direction 0.34202 -0.939693 0   
     length 7.84737   
     axis 0 0 20   XYZ
    dof rx
    limits (-10.0 170.0)
  end
  begin
     id 4 
     name lfoot
     direction 0.0790693 -0.217241 0.97291   
     length 2.59747   
     axis -90 7.62852e-016 20   XYZ
    dof rx rz
    limits (-45.0 90.0)
           (-70.0 20.0)
  end
  begin
     id 5 
     name ltoes
     direction 1.53572e-011 -4.21898e-011 1   
     length 1.29919   
     axis -90 7.62852e-016 20   XYZ
    dof rx
    limits (-90.0 20.0)
  end
  begin
     id 6 
     name rhipjoint
     direction -0.602353 -0.708375 0.367935   
     length 2.41867  
     axis 0 0 0  XYZ 
  end
  begin
     id 7 
     name rfemur
     direction -0.34202 -0.939693 0   
     length 6.92065   
     axis 0 0 -20   XYZ
    dof rx ry rz
    limits (-160.0 20.0)
           (-70.0 70.0)
           (-70.0 60.0)
  end
  begin
     id 8 
     name rtibia
     direction -0.34202 -0.939693 0   
     length 7.88883   
     axis 0 0 -20   XYZ
    dof rx
    limits (-10.0 170.0)
 end
 begin
     id 9 
     name rfoot
     direction -0.0768692 -0.211196 0.974416   
     length 2.43714  
     axis -90 -7.62852e-016 -20   XYZ
    dof rx rz
    limits (-45.0 90.0)
           (-20.0 70.0)
  end
  begin
     id 10 
     name rtoes
     direction -1.53575e-011 -4.21933e-011 1   
     length 1.22113   
     axis -90 -7.62852e-016 -20   XYZ
    dof rx
    limits (-90.0 20.0)
  end
  begin
     id 11 
     name lowerback
     direction 0.0197937 0.98943 -0.143655   
     length 2.16931   
     axis 0 0 0   XYZ
    dof rx ry rz
    limits (-20.0 45.0)
           (-30.0 30.0)
           (-30.0 30.0)
  end
  begin
     id 12 
     name upperback
     direction -0.00183968 0.999975 0.00684288   
     length 2.17221   
     axis 0 0 0   XYZ
    dof rx ry rz
    limits (-20.0 45.0)
           (-30.0 30.0)
           (-30.0 30.0)
  end
  begin
     id 13 
     name thorax
     direction -0.00950244 0.997208 0.0740685   
     length 2.22549   
     axis 0 0 0   XYZ
    dof rx ry rz
    limits (-20.0 45.0)
           (-30.0 30.0)
           (-30.0 30.0)
  end
  begin
     id 14 
     name lowerneck
     direction 0.0218238 0.996215 0.0841425   
     length 1.77269   
     axis 0 0 0   XYZ
    dof rx ry rz
    limits (-20.0 45.0)
           (-30.0 30.0)
           (-30.0 30.0)
  end
  begin
     id 15 
     name upperneck
     direction -0.00430652 0.994214 -0.107332   
     length 1.76534   
     axis 0 0 0   XYZ
    dof rx ry rz
    limits (-20.0 45.0)
           (-30.0 30.0)
           (-30.0 30.0)
  end
  begin
     id 16
     name head
     direction -0.00328946 0.998959 -0.0454998  
     length 1.82634  
     axis 0 0 0   XYZ
    dof rx ry rz
    limits (-20.0 45.0)
           (-30.0 30.0)
           (-30.0 30.0)
  end
  begin
     id 17 
     name lclavicle
     direction 0.970962 0.239191 0.00450212  
     length 3.84872  
     axis 0 0 0   XYZ
    dof ry rz
    limits (-20.0 10.0)
           (0.0 20.0)
  end
  begin
     id 18 
     name lhumerus
     direction 1 -4.48966e-011 5.74696e-028   
     length 5.22771   
     axis 180 -30 -90   XYZ
    dof rx ry rz
    limits (-60.0 90.0)
           (-90.0 90.0)
           (-90.0 90.0)
  end
  begin
     id 19
     name lradius
     direction 1 -4.4896e-011 4.25109e-027   
     length 3.45251   
     axis 180 -30 -90   XYZ
    dof rx
    limits (-10.0 170.0)
  end
  begin
     id 20
     name lwrist
     direction 1 -4.48971e-011 1.15382e-027   
     length 1.72626   
     axis -5.52449e-016 90 90   XYZ
    dof ry
    limits (-180.0 0.0)
 end
  begin
     id 21 
     name lhand
     direction 1 -4.49034e-011 2.30765e-027   
     length 0.552119   
     axis -1.47248e-015 90 90   XYZ
    dof rx rz
    limits (-90.0 90.0)
           (-45.0 45.0)
  end
  begin
     id 22 
     name lfingers
     direction 1 -4.48951e-011 4.61529e-027   
     length 0.445133   
     axis -2.94495e-015 90 90   XYZ
    dof rx
    limits (0.0 90.0)
  end
  begin
     id 23
     name lthumb
     direction 0.707107 -6.34991e-011 0.707107   
     length 0.639124   
     axis -90 45 2.85299e-015   XYZ
    dof rx rz
    limits (-45.0 45.0)
           (-45.0 45.0)
  end
  begin
     id 24 
     name rclavicle
     direction -0.97424 0.222511 -0.0366699   
     length 3.73439  
     axis 0 0 0   XYZ 
    dof ry rz
    limits (-10.0 20.0)
           (-20.0 0.0)
  end
  begin
     id 25 
     name rhumerus
     direction -1 -4.48956e-011 -4.97258e-028  
     length 5.2398   
     axis 180 30 90   XYZ
    dof rx ry rz
    limits (-90.0 60.0)
           (-90.0 90.0)
           (-90.0 90.0)
  end
  begin
     id 26 
     name rradius
     direction -1 -4.4897e-011 -1.72611e-027   
     length 3.48042   
     axis 180 30 90   XYZ
    dof rx
    limits (-10.0 170.0)
  end
  begin
     id 27 
     name rwrist
     direction -1 -4.48976e-011 1.15382e-027   
     length 1.74021   
     axis -5.52449e-016 -90 -90   XYZ
    dof ry
    limits (-180.0 0.0)
  end
  begin
     id 28
     name rhand
     direction -1 -4.48963e-011 2.30765e-027   
     length 0.618713   
     axis -1.47248e-015 -90 -90   XYZ
    dof rx rz
    limits (-90.0 90.0)
           (-45.0 45.0)
  end
  begin
     id 29
     name rfingers
     direction -1 -4.4888e-011 4.61529e-027   
     length 0.498823   
     axis -2.94495e-015 -90 -90   XYZ
    dof rx
    limits (0.0 90.0)
  end
  begin
     id 30
     name rthumb
     direction -0.707107 -6.34968e-011 0.707107   
     length 0.716213   
     axis -90 -45 -2.85299e-015   XYZ
    dof rx rz
    limits (-45.0 45.0)
           (-45.0 45.0)
  end
:hierarchy
  begin
    root lhipjoint rhipjoint lowerback
    lhipjoint lfemur
    lfemur ltibia
    ltibia lfoot
    lfoot ltoes
    rhipjoint rfemur
    rfemur rtibia
    rtibia rfoot
    rfoot rtoes
    lowerback upperback
    upperback thorax
    thorax lowerneck lclavicle rclavicle
    lowerneck upperneck
    upperneck head
    lclavicle lhumerus
    lhumerus lradius
    lradius lwrist
    lwrist lhand lthumb
    lhand lfingers
    rclavicle rhumerus
    rhumerus rradius
    rradius rwrist
    rwrist rhand rthumb
    rhand rfingers
  end

#!OML:ASF G:\JayActor3\Patient Classification 1\Patient 1\Session 5\male.ASF
:FULLY-SPECIFIED
:DEGREES
180
root 49.7256 16.23 -9.26388 3.2752 -58.3649 -5.88819
lowerback 2.90292 -0.97127 2.71798
upperback 3.77915 -1.30307 -0.144985
thorax 2.1932 -0.600788 -1.65911
lowerneck -7.15341 -0.445452 2.62932
upperneck 11.2295 -1.02574 0.538563
head 4.53009 -0.382278 -0.326337
rclavicle -6.24681e-014 1.11319e-014
rhumerus -29.3925 -9.18709 -87.588
rradius 27.6171
rwrist 2.86561
rhand -18.5241 -8.64526
rfingers 7.12502
rthumb 7.76455 -38.4827
lclavicle -6.24681e-014 1.11319e-014
lhumerus -26.7387 3.98413 86.0218
lradius 26.4825
lwrist 17.6923
lhand -18.9858 13.5699
lfingers 7.12502
lthumb 7.31889 43.4234
rfemur -10.0384 1.30326 27.4655
rtibia 33.9343
rfoot -23.3466 -10.6436
rtoes 8.49148
lfemur -7.50332 6.00356 -16.2457
ltibia 29.6298
lfoot -19.7343 3.23381
ltoes -15.4566
181
root 49.729 16.2292 -9.26648 3.41206 -58.2013 -6.1102
lowerback 2.94884 -0.986798 2.83409
upperback 3.79915 -1.32277 -0.0859884
thorax 2.18642 -0.608775 -1.66263
lowerneck -7.13383 -0.454664 2.63761
upperneck 11.1681 -1.03714 0.540648
head 4.50783 -0.387945 -0.327433
rclavicle -2.67365e-014 -3.18055e-015
rhumerus -29.4299 -9.09367 -87.5463
rradius 27.6327
rwrist 2.86789
rhand -18.5647 -8.63003
rfingers 7.12502
rthumb 7.72528 -38.4689
lclavicle -2.67365e-014 -3.18055e-015
lhumerus -26.7342 3.99121 86.1175
lradius 26.5798
lwrist 17.737
lhand -19.1517 13.5653
lfingers 7.12502
lthumb 7.15872 43.4242
rfemur -9.92371 1.11633 27.5869
rtibia 33.7894
rfoot -23.3062 -10.5944
rtoes 8.52785
lfemur -7.71432 6.03986 -16.0808
ltibia 30.1516
lfoot -19.9356 3.19245
ltoes -15.7973
182
root 49.7319 16.2284 -9.26859 3.5524 -58.0639 -6.33906
lowerback 2.98969 -0.99664 2.94246
upperback 3.81796 -1.33507 -0.0248318
thorax 2.18182 -0.613268 -1.65974
lowerneck -7.12397 -0.466008 2.64811
upperneck 11.1367 -1.05298 0.544517
head 4.49635 -0.395344 -0.328739
rclavicle 3.03147e-015 -6.75868e-015
rhumerus -29.457 -9.00655 -87.4989
rradius 27.6185
rwrist 2.89833
rhand -18.6147 -8.60901
rfingers 7.12502
rthumb 7.67701 -38.4497
lclavicle 3.03147e-015 -6.75868e-015
lhumerus -26.7375 4.02336 86.2053
lradius 26.6647
lwrist 17.7726
lhand -19.3541 13.5579
lfingers 7.12502
lthumb 6.96334 43.4233
rfemur -9.80763 0.959713 27.7143
rtibia 33.651
rfoot -23.2704 -10.5499
rtoes 8.57224
lfemur -7.89002 6.10503 -15.9223
ltibia 30.65
lfoot -20.0517 3.23915
ltoes -16.0218
183
root 49.7346 16.2273 -9.26995 3.69363 -57.9537 -6.56911
lowerback 3.0214 -0.998894 3.04558
upperback 3.83471 -1.33747 0.0346164
thorax 2.18076 -0.61286 -1.65593
lowerneck -7.11938 -0.481368 2.66289
upperneck 11.1329 -1.076 0.551138
head 4.49417 -0.405718 -0.330437
rclavicle 8.60241e-014 -9.14409e-015
rhumerus -29.4747 -8.93979 -87.4452
rradius 27.5749
rwrist 2.95672
rhand -18.6667 -8.59477
rfingers 7.12502
rthumb 7.6269 -38.4373
lclavicle 8.60241e-014 -9.14409e-015
lhumerus -26.7483 4.0731 86.2827
lradius 26.7342
lwrist 17.7986
lhand -19.5653 13.5502
lfingers 7.12502
lthumb 6.75947 43.4223
rfemur -9.69438 0.832824 27.8425
rtibia 33.5232
rfoot -23.2416 -10.5045
rtoes 8.63833
lfemur -8.02492 6.19753 -15.7755
ltibia 31.1141
lfoot -20.0599 3.37302
ltoes -16.0967
184
root 49.7366 16.2261 -9.27012 3.82408 -57.8684 -6.78827
lowerback 3.04249 -0.99671 3.14435
upperback 3.85024 -1.3342 0.0881087
thorax 2.18464 -0.609544 -1.65606
lowerneck -7.12078 -0.496666 2.67404
upperneck 11.1541 -1.10057 0.567514
head 4.50076 -0.416231 -0.328753
rclavicle -3.63279e-014 1.43125e-014
rhumerus -29.4826 -8.89216 -87.3892
rradius 27.4989
rwrist 3.04621
rhand -18.7359 -8.57219
rfingers 7.12502
rthumb 7.56003 -38.4171
lclavicle -3.63279e-014 1.43125e-014
lhumerus -26.7693 4.14223 86.3445
lradius 26.7892
lwrist 17.8136
lhand -19.7615 13.5286
lfingers 7.12502
lthumb 6.57005 43.4067
rfemur -9.58219 0.72981 27.9617
rtibia 33.4086
rfoot -23.2208 -10.4559
rtoes 8.71392
lfemur -8.10603 6.30065 -15.65
ltibia 31.526
lfoot -19.9603 3.58378
ltoes -16.0066
185
root 49.7381 16.2248 -9.26865 3.94599 -57.8136 -6.99465
lowerback 3.04439 -0.986815 3.24237
upperback 3.86585 -1.3212 0.134092
thorax 2.19974 -0.601056 -1.66397
lowerneck -7.12768 -0.516281 2.68458
upperneck 11.1956 -1.13229 0.58918
head 4.51445 -0.42979 -0.325864
rclavicle -8.88071e-014 4.77083e-015
rhumerus -29.479 -8.86774 -87.33
rradius 27.3939
rwrist 3.16113
rhand -18.8082 -8.55064
rfingers 7.12502
rthumb 7.49031 -38.398
lclavicle -8.88071e-014 4.77083e-015
lhumerus -26.7949 4.22181 86.3941
lradius 26.8255
lwrist 17.8229
lhand -19.9306 13.4956
lfingers 7.12502
lthumb 6.40683 43.3787
rfemur -9.47494 0.64961 28.0681
rtibia 33.3088
rfoot -23.2037 -10.4041
rtoes 8.77475
lfemur -8.12732 6.40788 -15.5483
ltibia 31.8599
lfoot -19.755 3.84396
ltoes -15.7413
186
root 49.7391 16.2235 -9.26537 4.05131 -57.7835 -7.17796
lowerback 3.02717 -0.971742 3.33651
upperback 3.88116 -1.30192 0.171155
thorax 2.22548 -0.589161 -1.67931
lowerneck -7.13678 -0.538021 2.692
upperneck 11.2516 -1.16774 0.616713
head 4.53299 -0.444843 -0.320957
rclavicle 6.04802e-014 3.97569e-015
rhumerus -29.4663 -8.86846 -87.2674
rradius 27.2636
rwrist 3.30229
rhand -18.8898 -8.51292
rfingers 7.12502
rthumb 7.41155 -38.3631
lclavicle 6.04802e-014 3.97569e-015
lhumerus -26.8316 4.30315 86.4337
lradius 26.8524
lwrist 17.8327
lhand -20.0687 13.4662
lfingers 7.12502
lthumb 6.27353 43.3533
rfemur -9.37354 0.586967 28.1546
rtibia 33.225
rfoot -23.192 -10.3434
rtoes 8.85057
lfemur -8.08437 6.4964 -15.4772
ltibia 32.0856
lfoot -19.4716 4.10815
ltoes -15.2908
187
root 49.7395 16.2224 -9.26031 4.13639 -57.7735 -7.33236
lowerback 2.99323 -0.954531 3.42113
upperback 3.89668 -1.2805 0.202141
thorax 2.26101 -0.576131 -1.69589
lowerneck -7.15358 -0.561476 2.69084
upperneck 11.3177 -1.20524 0.646033
head 4.55596 -0.461008 -0.314302
rclavicle -3.63279e-014 -2.38542e-015
rhumerus -29.4434 -8.88499 -87.2
rradius 27.1178
rwrist 3.45639
rhand -18.9656 -8.47352
rfingers 7.12502
rthumb 7.33834 -38.3263
lclavicle -3.63279e-014 -2.38542e-015
lhumerus -26.8737 4.38848 86.4684
lradius 26.8649
lwrist 17.8404
lhand -20.1763 13.4336
lfingers 7.12502
lthumb 6.16958 43.3237
rfemur -9.2805 0.536676 28.2178
rtibia 33.1585
rfoot -23.1838 -10.2824
rtoes 8.9114
lfemur -7.97974 6.55019 -15.4401
ltibia 32.1744
lfoot -19.1382 4.32378
ltoes -14.649
188
root 49.7395 16.2214 -9.25358 4.20773 -57.7832 -7.46204
lowerback 2.94501 -0.935042 3.4975
upperback 3.90764 -1.2565 0.226987
thorax 2.3 -0.561818 -1.71436
lowerneck -7.17052 -0.589898 2.68423
upperneck 11.3926 -1.24942 0.677795
head 4.58164 -0.480452 -0.306455
rclavicle -1.67973e-013 1.86858e-014
rhumerus -29.4221 -8.91205 -87.1308
rradius 26.9654
rwrist 3.61615
rhand -19.034 -8.43433
rfingers 7.12502
rthumb 7.2723 -38.2894
lclavicle -1.67973e-013 1.86858e-014
lhumerus -26.9325 4.46556 86.4985
lradius 26.8713
lwrist 17.8513
lhand -20.2506 13.4155
lfingers 7.12502
lthumb 6.09784 43.3077
rfemur -9.19908 0.503313 28.262
rtibia 33.1112
rfoot -23.182 -10.2229
rtoes 8.96816
lfemur -7.81913 6.56069 -15.4345
ltibia 32.1053
lfoot -18.7733 4.4797
ltoes -13.7543
189
root 49.7391 16.2204 -9.24533 4.25939 -57.815 -7.56157
lowerback 2.88965 -0.914184 3.55763
upperback 3.91554 -1.23107 0.249693
thorax 2.34018 -0.547135 -1.72601
lowerneck -7.192 -0.619173 2.66369
upperneck 11.4705 -1.29331 0.709458
head 4.60912 -0.500269 -0.296401
rclavicle -5.43179e-014 1.82882e-014
rhumerus -29.3998 -8.93653 -87.0574
rradius 26.8152
rwrist 3.77051
rhand -19.0892 -8.40548
rfingers 7.12502
rthumb 7.21902 -38.2623
lclavicle -5.43179e-014 1.82882e-014
lhumerus -27.0037 4.54185 86.5297
lradius 26.87
lwrist 17.8548
lhand -20.2842 13.4021
lfingers 7.12502
lthumb 6.06547 43.2953
rfemur -9.13065 0.483915 28.284
rtibia 33.0862
rfoot -23.1845 -10.1665
rtoes 8.99741
lfemur -7.60648 6.52906 -15.4635
ltibia 31.8728
lfoot -18.4048 4.58959
ltoes -12.5532
190
root 49.7385 16.2196 -9.23588 4.29031 -57.8624 -7.62361
lowerback 2.82738 -0.895019 3.59727
upperback 3.91595 -1.2081 0.269237
thorax 2.37662 -0.534217 -1.72941
lowerneck -7.21122 -0.649666 2.62944
upperneck 11.5464 -1.3373 0.742728
head 4.6357 -0.52064 -0.283622
rclavicle -4.25399e-014 -2.78299e-015
rhumerus -29.3825 -8.95406 -86.983
rradius 26.6698
rwrist 3.91991
rhand -19.1338 -8.38487
rfingers 7.12502
rthumb 7.17598 -38.2432
lclavicle -4.25399e-014 -2.78299e-015
lhumerus -27.0912 4.61711 86.5599
lradius 26.8588
lwrist 17.8481
lhand -20.2788 13.3857
lfingers 7.12502
lthumb 6.07061 43.2787
rfemur -9.08242 0.489456 28.2834
rtibia 33.0868
rfoot -23.1997 -10.1255
rtoes 9.00331
lfemur -7.35675 6.4528 -15.5331
ltibia 31.4899
lfoot -18.0656 4.68262
ltoes -11.1244
